<svg width="112" height="112" viewBox="0 0 112 112" fill="none" xmlns="http://www.w3.org/2000/svg">
<path d="M39.5896 44.5209C44.0557 44.5209 47.6843 46.9052 49.5452 51.0456L49.6847 51.3712L57.1747 48.8242L57.0235 48.4404C54.1275 41.3691 47.4401 36.9845 39.5896 36.9845C34.0652 36.9845 29.5759 38.7523 25.8658 42.3926C22.179 46.0096 20.3182 50.5571 20.3182 55.907C20.3182 61.2221 22.1907 65.7463 25.8658 69.3517C29.5759 72.992 34.0652 74.7598 39.5896 74.7598C47.4401 74.7598 54.1159 70.3635 57.0235 63.3039L57.1747 62.9201L49.6731 60.3731L49.5452 60.7104C47.8704 64.7926 44.1487 67.2233 39.5896 67.2233C36.4843 67.2233 33.8559 66.1417 31.7857 64.0017C29.6806 61.8385 28.6222 59.1054 28.6222 55.907C28.6222 52.6854 29.6573 50.0105 31.7857 47.7425C33.8675 45.6026 36.4843 44.5209 39.5896 44.5209Z" fill="#468B97"/>
<path d="M72.108 108.674L69.875 101.312C90.0187 95.1942 103.556 76.9463 103.556 55.907C103.556 50.1035 102.521 44.4279 100.474 39.0547L107.662 36.3215C110.046 42.5786 111.256 49.1614 111.256 55.9186C111.244 80.3539 95.5199 101.556 72.108 108.674Z" fill="url(#paint0_linear_4_144)"/>
<path d="M101.475 41.9971C95.3221 21.9232 77.0509 8.44366 56 8.44366C53.1389 8.44366 50.2779 8.69952 47.4866 9.19963L46.1259 1.62829C49.3591 1.04677 52.6854 0.744385 56 0.744385C80.4469 0.744385 101.672 16.4104 108.825 39.7292L101.475 41.9971Z" fill="#468B97"/>
<path d="M4.2916 75.353C1.94227 69.1424 0.755981 62.5945 0.755981 55.9071C0.755981 27.4128 22.1441 3.81484 50.5105 1.02356L51.2665 8.67631C26.8544 11.0838 8.44362 31.3903 8.44362 55.9071C8.44362 61.6641 9.46709 67.3048 11.4791 72.6431L4.2916 75.353Z" fill="#468B97"/>
<path d="M86.4947 37.6823L75.8297 64.7111L65.0833 37.6823H56.2908L71.3637 74.5736L60.3846 101.207L68.0723 102.742L94.7988 37.6823H86.4947Z" fill="#468B97"/>
<path d="M61.7687 97.8575L60.152 101.777C59.7799 102.672 58.9309 103.289 57.9772 103.324C57.3142 103.347 56.6629 103.37 55.9884 103.37C34.8794 103.37 16.0848 89.2394 10.2812 69.0027L2.88434 71.1194C9.62993 94.6243 31.46 111.046 55.9768 111.058H55.9884C56.756 111.058 57.5236 111.046 58.2912 111.011C62.2339 110.849 65.7579 108.371 67.2698 104.708L69.4563 99.3927L61.7687 97.8575Z" fill="#468B97"/>
<defs>
<linearGradient id="paint0_linear_4_144" x1="115.488" y1="56.2561" x2="66.1614" y2="88.1933" gradientUnits="userSpaceOnUse">
<stop offset="0.0814251" stop-color="#468B97"/>
<stop offset="1" stop-color="#69D3A7" stop-opacity="0"/>
</linearGradient>
</defs>
</svg>
