<svg width="113" height="81" viewBox="0 0 113 81" fill="none" xmlns="http://www.w3.org/2000/svg">
<path d="M111.452 30.3751C111.14 30.1155 108.335 27.9866 102.31 27.9866C100.751 27.9866 99.1411 28.1424 97.5827 28.402C96.4399 20.4578 89.8429 16.6154 89.5832 16.4078L87.9729 15.4731L86.934 16.9789C85.6354 19.0039 84.6484 21.2885 84.077 23.6251C82.9862 28.1424 83.6615 32.4001 85.9471 36.0347C83.194 37.5924 78.7267 37.9559 77.7917 38.0078H4.02994C2.10797 38.0078 0.549626 39.5655 0.549626 41.4866C0.445737 47.9251 1.53658 54.3636 3.77021 60.4386C6.31551 67.0847 10.1075 72.0174 14.9903 75.029C20.4965 78.404 29.4829 80.3251 39.6122 80.3251C44.1833 80.3251 48.7545 79.9098 53.2737 79.079C59.559 77.9367 65.5846 75.7559 71.1428 72.5886C75.7139 69.9405 79.8176 66.5655 83.2979 62.6194C89.1676 56.0251 92.6479 48.652 95.1933 42.1097H96.2322C102.621 42.1097 106.569 39.5655 108.751 37.3847C110.205 36.0347 111.296 34.3732 112.075 32.5039L112.543 31.1539L111.452 30.3751Z" fill="#468B97"/>
<path d="M10.8867 35.8789H20.7562C21.2237 35.8789 21.6393 35.5154 21.6393 34.9962V26.1693C21.6393 25.702 21.2756 25.2866 20.7562 25.2866H10.8867C10.4192 25.2866 10.0036 25.65 10.0036 26.1693V34.9962C10.0555 35.5154 10.4192 35.8789 10.8867 35.8789ZM24.4962 35.8789H34.3658C34.8333 35.8789 35.2488 35.5154 35.2488 34.9962V26.1693C35.2488 25.702 34.8852 25.2866 34.3658 25.2866H24.4962C24.0287 25.2866 23.6132 25.65 23.6132 26.1693V34.9962C23.6651 35.5154 24.0287 35.8789 24.4962 35.8789ZM38.3655 35.8789H48.2351C48.7026 35.8789 49.1181 35.5154 49.1181 34.9962V26.1693C49.1181 25.702 48.7545 25.2866 48.2351 25.2866H38.3655C37.898 25.2866 37.4825 25.65 37.4825 26.1693V34.9962C37.4825 35.5154 37.8461 35.8789 38.3655 35.8789ZM52.027 35.8789H61.8966C62.3641 35.8789 62.7796 35.5154 62.7796 34.9962V26.1693C62.7796 25.702 62.416 25.2866 61.8966 25.2866H52.027C51.5595 25.2866 51.144 25.65 51.144 26.1693V34.9962C51.144 35.5154 51.5595 35.8789 52.027 35.8789ZM24.4962 23.2616H34.3658C34.8333 23.2616 35.2488 22.8462 35.2488 22.3789V13.5519C35.2488 13.0846 34.8852 12.6692 34.3658 12.6692H24.4962C24.0287 12.6692 23.6132 13.0327 23.6132 13.5519V22.3789C23.6651 22.8462 24.0287 23.2616 24.4962 23.2616ZM38.3655 23.2616H48.2351C48.7026 23.2616 49.1181 22.8462 49.1181 22.3789V13.5519C49.1181 13.0846 48.7545 12.6692 48.2351 12.6692H38.3655C37.898 12.6692 37.4825 13.0327 37.4825 13.5519V22.3789C37.4825 22.8462 37.8461 23.2616 38.3655 23.2616ZM52.027 23.2616H61.8966C62.3641 23.2616 62.7796 22.8462 62.7796 22.3789V13.5519C62.7796 13.0846 62.3641 12.6692 61.8966 12.6692H52.027C51.5595 12.6692 51.144 13.0327 51.144 13.5519V22.3789C51.144 22.8462 51.5595 23.2616 52.027 23.2616ZM52.027 10.5923H61.8966C62.3641 10.5923 62.7796 10.2289 62.7796 9.70963V0.8827C62.7796 0.415391 62.3641 0 61.8966 0H52.027C51.5595 0 51.144 0.363468 51.144 0.8827V9.70963C51.144 10.1769 51.5595 10.5923 52.027 10.5923ZM65.7924 35.8789H75.662C76.1295 35.8789 76.545 35.5154 76.545 34.9962V26.1693C76.545 25.702 76.1814 25.2866 75.662 25.2866H65.7924C65.3249 25.2866 64.9094 25.65 64.9094 26.1693V34.9962C64.9613 35.5154 65.3249 35.8789 65.7924 35.8789Z" fill="#468B97"/>
</svg>
