<svg width="112" height="112" viewBox="0 0 112 112" fill="none" xmlns="http://www.w3.org/2000/svg">
<g clip-path="url(#clip0_4_79)">
<path d="M0 4C0 1.79086 1.79086 0 4 0H108C110.209 0 112 1.79086 112 4V108C112 110.209 110.209 112 108 112H4C1.79086 112 0 110.209 0 108V4Z" fill="#468B97"/>
<path d="M102.833 85.2882C102.014 80.1779 98.6814 75.8874 88.8122 71.8844C85.384 70.3087 81.562 69.1803 80.4228 66.5825C80.0182 65.0707 79.965 64.219 80.2205 63.3034C80.9551 60.333 84.5004 59.4068 87.311 60.2585C89.1209 60.8654 90.835 62.2602 91.8677 64.4851C96.7011 61.3552 96.6905 61.3764 100.065 59.2259C98.8304 57.3096 98.1703 56.4258 97.3612 55.6062C94.4547 52.359 90.4943 50.6875 84.1597 50.8153C83.0631 50.9537 81.956 51.1026 80.8593 51.2411C77.6974 52.0396 74.6844 53.7005 72.9171 55.9256C67.6152 61.9408 69.127 72.4699 75.5787 76.8031C81.9346 81.5727 91.2715 82.6586 92.4639 87.1195C93.6243 92.5811 88.4503 94.3483 83.308 93.7202C79.5179 92.9324 77.41 91.0054 75.1315 87.5027C70.937 89.9301 70.937 89.9301 66.6252 92.4107C67.6472 94.6465 68.7224 95.6579 70.4366 97.5955C78.5491 105.825 98.8517 105.421 102.493 92.9643C102.642 92.5384 103.621 89.6851 102.833 85.2882ZM60.8867 51.4753H50.4106C50.4106 60.5247 50.3682 69.5102 50.3682 78.5597C50.3682 84.3194 50.6663 89.6 49.7294 91.2182C48.1963 94.4014 44.2252 94.0076 42.4153 93.39C40.5735 92.485 39.6366 91.1968 38.5507 89.3764C38.2526 88.8547 38.029 88.4502 37.9544 88.4182C35.1119 90.1536 32.2798 91.8995 29.4373 93.635C30.8533 96.5414 32.9399 99.0646 35.6122 100.704C39.6046 103.099 44.9703 103.834 50.5811 102.546C54.2328 101.481 57.384 99.2775 59.0342 95.9239C61.419 91.527 60.908 86.2038 60.8867 80.3163C60.9399 70.7133 60.8867 61.1102 60.8867 51.4753Z" fill="white"/>
</g>
<defs>
<clipPath id="clip0_4_79">
<rect width="112" height="112" fill="white"/>
</clipPath>
</defs>
</svg>
