<svg width="112" height="124" viewBox="0 0 112 124" fill="none" xmlns="http://www.w3.org/2000/svg">
<path d="M103.035 60.0875C103.035 53.9483 98.0884 48.9711 91.9869 48.9711C91.5941 48.9711 91.2072 48.9922 90.8253 49.0328L106 4H41.5129L56.6666 48.9935C56.4429 48.9793 56.219 48.972 55.9949 48.9715C49.8934 48.9715 44.9468 53.9479 44.9468 60.0879C44.9468 65.0504 48.1792 69.2519 52.6401 70.6814C50.2841 74.7877 47.3192 78.4866 43.953 81.6823C39.3756 86.0269 34.1371 89.3216 28.4713 91.3515C21.7255 87.8647 18.5402 80.1103 21.4143 73.3113C21.739 72.5433 22.0704 71.7651 22.3871 70.9903C27.274 69.8427 30.916 65.4346 30.916 60.1675C30.916 54.0279 25.9694 49.051 19.8675 49.051C13.7656 49.051 8.81937 54.0279 8.81937 60.1675C8.81937 63.9324 10.6808 67.258 13.5267 69.2689C10.7922 75.5333 6.7725 82.0898 5.52007 89.6885C4.01909 98.795 5.51502 108.462 13.3429 113.921C31.5734 126.634 51.3624 106.039 72.2273 100.862C79.789 98.9862 88.0896 99.2884 94.7517 95.4063C99.7547 92.4907 103.053 87.6586 103.989 82.2341C104.914 76.8752 103.566 71.5395 100.465 67.2131C102.129 65.2163 103.039 62.693 103.035 60.0875Z" fill="#468B97"/>
<path d="M101.525 81.8682C100.709 86.6005 97.8038 90.7336 93.5557 93.2094C89.5954 95.5169 84.8499 96.2057 79.825 96.9344C77.1334 97.3247 74.3501 97.7291 71.631 98.4034C64.4415 100.187 57.4777 103.667 50.7438 107.032C37.2667 113.767 25.628 119.583 14.6536 111.931C6.61462 106.325 6.98567 95.9544 7.92218 90.2715C8.79022 85.006 11.137 80.1569 13.406 75.4676C13.7926 74.6706 14.176 73.8721 14.5564 73.0721C15.7001 73.5321 16.9003 73.835 18.1245 73.9726C15.8145 81.6424 19.4472 89.9819 27.0716 93.9225L28.1154 94.462L29.2202 94.0662C35.2479 91.9063 40.8023 88.4411 45.7287 83.7645C48.9131 80.7419 51.6512 77.3979 53.9016 73.8247C54.5857 73.9285 55.2767 73.9807 55.9686 73.9807C62.9666 73.9807 68.7615 68.7174 69.6583 61.9197C72.5227 61.8142 75.5651 61.8134 78.4461 61.9188C79.342 68.7174 85.1377 73.9811 92.1357 73.9811C95.0619 73.9811 97.7759 73.0585 100.012 71.4913C101.564 74.6882 102.144 78.2852 101.525 81.8682ZM19.6653 51.7217C24.2921 51.7217 28.0559 55.5088 28.0559 60.1637C28.0559 61.8355 27.5682 63.3946 26.731 64.7076C25.3363 66.896 22.9655 68.396 20.2418 68.5831C20.0512 68.5958 19.8589 68.6052 19.6653 68.6052C18.6341 68.6052 17.6465 68.416 16.7332 68.0724C14.8939 67.3766 13.3537 66.0568 12.3782 64.3406C11.6538 63.0692 11.2733 61.6291 11.2743 60.1637C11.2743 55.5088 15.0385 51.7217 19.6653 51.7217ZM47.5784 60.0833C47.5784 55.8541 50.6859 52.3425 54.7236 51.7353C55.1301 51.6737 55.546 51.6418 55.969 51.6418C58.6589 51.6418 61.0539 52.9237 62.5896 54.9102C62.9743 55.4055 63.3029 55.9424 63.5693 56.511C64.0908 57.6287 64.3607 58.8485 64.3595 60.0833C64.3595 60.7581 64.2784 61.4141 64.1292 62.0434C63.3115 65.4873 60.3925 68.12 56.8155 68.4823C56.5374 68.5104 56.2551 68.5248 55.969 68.5248C54.3551 68.5262 52.7754 68.0563 51.4217 67.1723C49.1117 65.6668 47.5784 63.0523 47.5784 60.0833ZM82.5982 50.0448C80.7723 51.7983 79.4583 54.021 78.7985 56.4723C75.6359 56.355 72.4701 56.355 69.3075 56.4723C68.5975 53.8226 67.126 51.4849 65.146 49.7094L73.8286 32.0466L82.5982 50.0448ZM45.1979 6.45675H102.435L88.9163 46.5703C88.3347 46.7104 87.7628 46.8887 87.2043 47.1039L73.8497 19.6956L60.4571 46.9402C59.8733 46.7386 59.2766 46.5768 58.6712 46.4559L45.1979 6.45675ZM100.526 60.0837C100.526 60.9298 100.401 61.747 100.17 62.5187C99.6212 64.3355 98.4822 65.9144 96.9354 67.0023C95.5295 67.9949 93.8533 68.5268 92.1357 68.5252C88.2617 68.5252 84.9936 65.8691 84.0326 62.2721C83.8417 61.5585 83.7451 60.8227 83.7452 60.0837C83.7452 58.9298 83.9768 57.8294 84.3952 56.8269C84.6111 56.3139 84.8769 55.8237 85.1888 55.3634C86.6988 53.121 89.2468 51.6422 92.1357 51.6422C92.4007 51.6422 92.6619 51.6558 92.921 51.6805C97.1809 52.0797 100.526 55.695 100.526 60.0837ZM105.95 60.0837C105.95 53.2987 101.09 47.6375 94.6904 46.4283L110 1H37.6339L52.9672 46.5201C46.7894 47.9032 42.1555 53.4573 42.1555 60.0833C42.1555 65.0588 44.7689 69.4287 48.6857 71.8846C46.8017 74.7086 44.5678 77.366 42.0076 79.7963C37.9471 83.6497 33.4239 86.5724 28.5474 88.4955C23.6353 85.3913 21.559 79.537 23.7152 74.4374L23.8843 74.0377L24.2012 73.2877C29.5963 71.3943 33.4788 66.2284 33.4788 60.1637C33.4788 52.5002 27.2821 46.2658 19.6653 46.2658C12.0486 46.2658 5.85096 52.5002 5.85096 60.1637C5.85096 64.0315 7.43153 67.5342 9.97481 70.0563C9.50047 71.0674 9.01896 72.0751 8.53032 73.0793C6.20468 77.8843 3.56927 83.3304 2.57233 89.3786C0.592811 101.39 3.78607 110.992 11.5643 116.415C16.284 119.706 21.0773 121 25.9005 121C34.9825 121 44.1701 116.409 53.1561 111.919C59.6275 108.685 66.3196 105.341 72.9297 103.701C75.3893 103.091 77.9199 102.723 80.5993 102.335C85.9128 101.563 91.4067 100.766 96.2735 97.9306C101.915 94.6431 105.776 89.1286 106.868 82.8019C107.806 77.3702 106.678 71.9301 103.927 67.316C105.252 65.1395 105.953 62.636 105.95 60.0833V60.0837Z" fill="#ADD3DA"/>
</svg>
