<svg width="52" height="113" viewBox="0 0 52 113" fill="none" xmlns="http://www.w3.org/2000/svg">
<path d="M25.7116 0.78772L28.7004 6.4013C29.3723 7.43722 30.1003 8.35415 30.9577 9.20809C33.4715 11.6905 35.8147 14.34 37.9712 17.1385C43.0353 23.788 46.451 31.1724 48.8904 39.1588C50.3533 44.0375 51.1477 49.0421 51.2072 54.1027C51.4522 69.2321 46.2656 82.2231 35.8083 93.0198C34.1074 94.7319 32.2698 96.3027 30.3138 97.7164C29.2778 97.7164 28.7879 96.922 28.3609 96.1906C27.5834 94.8342 27.0659 93.3446 26.835 91.7984C26.4675 89.968 26.2261 88.1377 26.345 86.2478V85.3939C26.2611 85.2119 25.3476 1.21819 25.7116 0.78772Z" fill="#1D5B79"/>
<path d="M25.7116 0.602213C25.5891 0.357231 25.4666 0.542717 25.3441 0.661709C25.4036 1.88662 24.9767 2.97853 24.3082 4.02146C23.5733 5.05738 22.6003 5.85182 21.6239 6.70575C16.1993 11.4024 11.9296 17.0755 8.51039 23.4205C3.96073 31.9599 1.61591 41.1117 0.950957 50.7464C0.64648 54.2217 2.04987 66.4848 3.14529 70.023C6.13407 79.4163 11.5027 87.2872 18.4566 94.1187C20.1645 95.7636 21.9914 97.2894 23.8812 98.7558C24.4307 98.7558 24.4902 98.2659 24.6162 97.9019C24.8571 97.1231 25.0407 96.3277 25.1656 95.5221L26.3905 86.3738L25.7116 0.602213Z" fill="#468B97"/>
<path d="M28.7004 101.433C28.8229 100.033 29.4948 98.8713 30.2263 97.7129C29.4913 97.4084 28.9454 96.8029 28.5184 96.1275C28.1502 95.488 27.8455 94.814 27.6085 94.1151C26.7545 91.5533 26.5725 88.8655 26.3276 86.2477V84.6624C26.0231 84.9073 25.9601 86.9792 25.9601 87.2872C25.782 90.054 25.4148 92.8054 24.8612 95.522C24.6792 96.621 24.5567 97.7164 23.8812 98.6928C23.8812 98.8153 23.8812 98.9378 23.9407 99.1198C25.0397 102.354 25.3406 105.647 25.5261 109.003V110.228C25.5261 111.691 25.4666 111.383 26.681 111.873C27.171 112.055 27.717 112.118 28.2069 112.482C28.5744 112.482 28.6339 112.177 28.6339 111.932L28.4519 109.92V104.306C28.3924 103.326 28.5744 102.354 28.6969 101.437L28.7004 101.433Z" fill="#B1D9E0"/>
</svg>
