<svg width="112" height="120" viewBox="0 0 112 120" fill="none" xmlns="http://www.w3.org/2000/svg">
<path fill-rule="evenodd" clip-rule="evenodd" d="M94.4004 78.3254C94.8736 78.0536 95.267 77.6622 95.5411 77.1904C95.8153 76.7186 95.9605 76.183 95.9622 75.6374L96.0182 57.6334C96.02 57.0877 96.1652 56.5521 96.4393 56.0803C96.7134 55.6085 97.1068 55.2171 97.58 54.9454L107.34 49.3391C107.813 49.0675 108.349 48.925 108.894 48.9259C109.44 48.9268 109.975 49.0711 110.447 49.3444C110.919 49.6176 111.311 50.0102 111.584 50.4827C111.856 50.9552 112 51.491 112 52.0365V84.7685C112 85.3157 111.855 85.8532 111.581 86.3268C111.307 86.8004 110.913 87.1933 110.438 87.4658L73.6058 108.621C73.1353 108.891 72.6024 109.034 72.06 109.034C71.5175 109.035 70.9843 108.894 70.5133 108.624L41.608 92.092C41.1318 91.82 40.736 91.427 40.4607 90.9528C40.1853 90.4785 40.0402 89.94 40.04 89.3916V72.8871C40.04 72.8685 40.0618 72.856 40.0804 72.8654C40.096 72.8747 40.1178 72.8654 40.1178 72.8436V72.8249C40.1178 72.8125 40.124 72.8 40.1364 72.7938L63.9427 59.1174C63.9644 59.1049 63.9551 59.0707 63.9302 59.0707C63.9236 59.0707 63.9173 59.0681 63.9126 59.0634C63.908 59.0587 63.9053 59.0524 63.9053 59.0458L63.952 42.8649C63.9542 42.3177 63.812 41.7797 63.5398 41.305C63.2677 40.8303 62.8751 40.4358 62.4018 40.1613C61.9285 39.8868 61.3912 39.742 60.844 39.7414C60.2968 39.7409 59.7592 39.8847 59.2853 40.1582L41.5924 50.3533C41.1202 50.6253 40.5849 50.7684 40.04 50.7684C39.4951 50.7684 38.9598 50.6253 38.4876 50.3533L20.7387 40.1333C20.2658 39.8611 19.7297 39.7179 19.184 39.7183C18.6384 39.7187 18.1024 39.8626 17.6299 40.1356C17.1575 40.4085 16.7651 40.8009 16.4922 41.2734C16.2193 41.746 16.0754 42.2819 16.0751 42.8276V72.072C16.0755 72.6171 15.9326 73.1527 15.6609 73.6252C15.3891 74.0977 14.998 74.4905 14.5267 74.7643C14.0554 75.0381 13.5204 75.1832 12.9753 75.1852C12.4302 75.1872 11.8942 75.0459 11.4209 74.7756L1.57112 69.1445C1.09403 68.8719 0.697625 68.4779 0.42221 68.0025C0.146795 67.5271 0.00219595 66.9872 0.00311717 66.4378L0.0902283 15.3222C0.0914139 14.7773 0.23571 14.2422 0.508674 13.7706C0.781638 13.299 1.17369 12.9073 1.6456 12.6348C2.11751 12.3623 2.65271 12.2185 3.19765 12.2179C3.74258 12.2173 4.27812 12.3597 4.75067 12.6311L38.4907 32.0102C38.9621 32.281 39.4963 32.4235 40.04 32.4235C40.5837 32.4235 41.1179 32.281 41.5893 32.0102L75.32 12.6311C75.7932 12.3594 76.3296 12.2168 76.8754 12.2179C77.4211 12.219 77.9569 12.3635 78.4291 12.6371C78.9013 12.9107 79.2932 13.3037 79.5655 13.7767C79.8378 14.2496 79.9809 14.7858 79.9804 15.3316V66.4596C79.9807 67.0065 79.8367 67.5438 79.563 68.0174C79.2894 68.4909 78.8958 68.884 78.4218 69.1569L60.7569 79.3302C60.2824 79.6038 59.8885 79.9977 59.6151 80.4722C59.3416 80.9468 59.1983 81.4851 59.1996 82.0327C59.2008 82.5804 59.3467 83.118 59.6223 83.5913C59.8979 84.0646 60.2936 84.4567 60.7693 84.728L70.5133 90.2751C70.9842 90.5432 71.517 90.6837 72.0588 90.6826C72.6007 90.6815 73.1329 90.5389 73.6027 90.2689L94.4004 78.3254ZM96.4444 32.4613C96.4449 33.0115 96.5912 33.5518 96.8685 34.027C97.1458 34.5022 97.5442 34.8953 98.023 35.1663C98.5018 35.4374 99.0439 35.5766 99.5941 35.5698C100.144 35.563 100.683 35.4104 101.155 35.1276L110.488 29.5276C110.949 29.2515 111.33 28.8608 111.595 28.3936C111.86 27.9264 112 27.3985 112 26.8613V15.4498C111.999 14.8999 111.852 14.36 111.575 13.8853C111.297 13.4105 110.899 13.0178 110.42 12.7471C109.941 12.4765 109.399 12.3376 108.85 12.3445C108.3 12.3514 107.761 12.504 107.29 12.7867L97.9564 18.3867C97.4957 18.6628 97.1143 19.0534 96.8493 19.5207C96.5844 19.9879 96.4449 20.5158 96.4444 21.0529V32.4613Z" fill="#468B97"/>
</svg>
