<svg width="112" height="111" viewBox="0 0 112 111" fill="none" xmlns="http://www.w3.org/2000/svg">
<path d="M103.096 84.9677C97.0069 84.8159 92.2875 85.4249 88.3295 87.0992C87.1876 87.5555 85.3606 87.556 85.2084 89.0023C85.8174 89.6113 85.8935 90.601 86.4264 91.4379C87.3407 92.96 88.938 95.0153 90.3844 96.0815C91.9826 97.2991 93.5817 98.5166 95.2555 99.5824C98.2244 101.409 101.574 102.475 104.466 104.302C106.141 105.367 107.815 106.738 109.49 107.879C110.327 108.487 110.859 109.478 111.926 109.858V109.63C111.392 108.944 111.24 107.955 110.708 107.194C109.947 106.433 109.185 105.748 108.424 104.986C106.217 102.018 103.477 99.4301 100.508 97.2991C98.0726 95.6243 92.7439 93.341 91.7547 90.5244C91.7547 90.5244 91.6781 90.4487 91.6024 90.3726C93.2767 90.2203 95.2555 89.6113 96.8546 89.1546C99.4424 88.469 101.802 88.6217 104.466 87.9366C105.684 87.6321 106.902 87.2515 108.119 86.8708V86.1861C106.75 84.8159 105.76 82.9893 104.314 81.6952C100.432 78.3453 96.169 75.0728 91.7547 72.3327C89.3948 70.8102 86.3498 69.8206 83.8381 68.5269C82.9255 68.0697 81.4025 67.8418 80.8701 67.0805C79.4994 65.4062 78.7382 63.199 77.749 61.2198C75.5422 57.0329 73.4103 52.3901 71.5072 47.9758C70.1378 45.0069 69.3004 42.038 67.6257 39.2984C59.7857 26.3585 51.2605 18.5185 38.1688 10.8303C35.3522 9.23209 32.0031 8.54696 28.4257 7.71003C26.5234 7.63346 24.6199 7.48165 22.7172 7.40509C21.4992 6.87221 20.2812 5.42628 19.2154 4.74115C14.8776 2.00065 3.68768 -3.93578 0.490865 3.90422C-1.56451 8.85146 3.53587 13.7226 5.28586 16.2352C6.58086 17.9856 8.25474 19.9644 9.16824 21.9437C9.70111 23.2369 9.85293 24.608 10.3858 25.9778C11.6042 29.326 12.7452 33.0566 14.3443 36.1777C15.1817 37.7759 16.0947 39.4502 17.1605 40.8966C17.7695 41.7335 18.8348 42.1146 19.0636 43.4844C17.9983 45.0069 17.9217 47.2907 17.3123 49.1933C14.5722 57.7946 15.6384 68.4508 19.5199 74.7683C20.7375 76.6705 23.6302 80.8583 27.5122 79.2592C30.9378 77.8894 30.1765 73.5507 31.1653 69.7449C31.3946 68.8305 31.2423 68.2224 31.6986 67.6134V67.7661C32.7644 69.8967 33.8297 71.9525 34.8193 74.0836C37.1792 77.8128 41.2891 81.6952 44.7142 84.2835C46.5417 85.6528 47.9876 88.0127 50.2714 88.8501V88.6213H50.1187C49.6619 87.9361 48.9768 87.6321 48.3682 87.0988C46.9984 85.7294 45.4755 84.0546 44.4102 82.5322C41.2138 78.2691 38.3967 73.5503 35.8851 68.6787C34.6675 66.3197 33.6013 63.7315 32.6121 61.372C32.1549 60.4577 32.1549 59.0883 31.3941 58.632C30.2522 60.3063 28.5779 61.7526 27.7406 63.8076C26.2951 67.0805 26.1424 71.1147 25.6095 75.3007C25.305 75.3777 25.4568 75.3007 25.3046 75.4538C22.8694 74.844 22.0321 72.3327 21.1181 70.2012C18.8344 64.7972 18.4537 56.1198 20.4334 49.8785C20.9663 48.2798 23.2501 43.2565 22.3366 41.734C21.8798 40.2876 20.3569 39.4502 19.5199 38.3088C18.5307 36.8624 17.4646 35.0363 16.7799 33.4372C14.9529 29.1747 14.0394 24.4553 12.0606 20.1928C11.1471 18.2135 9.5493 16.159 8.25474 14.332C6.8088 12.2771 5.21018 10.8303 4.0683 8.39471C3.68811 7.55778 3.1548 6.18753 3.7638 5.27403C3.91605 4.66503 4.22011 4.43709 4.82955 4.28484C5.81918 3.44703 8.6358 4.51278 9.62455 4.96953C12.4412 6.11053 14.8006 7.17715 17.1605 8.77534C18.2258 9.53659 19.3677 10.983 20.7375 11.3636H22.3361C24.7721 11.896 27.5117 11.5158 29.7955 12.2005C33.8301 13.4942 37.4832 15.3973 40.7566 17.4527C50.7281 23.7702 58.9479 32.7521 64.505 43.4844C65.4185 45.2344 65.7987 46.8339 66.636 48.66C68.2351 52.3902 70.2139 56.196 71.8117 59.8495C73.4103 63.4265 74.9324 67.0805 77.2161 70.0494C78.358 71.6472 82.9246 72.485 84.98 73.3223C86.5025 74.007 88.8624 74.6165 90.2322 75.4534C92.82 77.0511 95.4078 78.879 97.8438 80.629C99.0618 81.5425 102.867 83.4456 103.096 84.9677Z" fill="#468B97"/>
<path d="M25.4564 18.8221C24.1627 18.8221 23.2496 18.9753 22.3361 19.2032V19.3555H22.4884C23.0978 20.5735 24.1627 21.4108 24.9235 22.4761C25.5329 23.6937 26.0654 24.9121 26.6748 26.1301C26.7505 26.0536 26.8266 25.9779 26.8266 25.9779C27.8928 25.2162 28.4252 23.9986 28.4252 22.1716C27.9685 21.6392 27.8924 21.1063 27.5117 20.5735C27.0554 19.8118 26.0654 19.4316 25.4564 18.8221Z" fill="#468B97"/>
</svg>
