<svg width="92" height="113" viewBox="0 0 92 113" fill="none" xmlns="http://www.w3.org/2000/svg">
<path fill-rule="evenodd" clip-rule="evenodd" d="M0.866726 77.2892C-0.272695 75.492 -0.289909 73.2028 0.822351 71.3882L42.701 3.07558C45.0304 -0.723943 50.6548 -0.391722 52.5207 3.65555L90.7789 86.6466C92.1982 89.7259 90.5643 93.3489 87.3163 94.3234L27.8028 112.177C25.4084 112.896 22.8284 111.933 21.4899 109.822L0.866726 77.2892ZM47.5329 23.0496C47.9364 21.04 50.69 20.7502 51.5032 22.6318L77.8932 83.6967C78.3897 84.8465 77.7716 86.1724 76.5714 86.5305L35.4523 98.8051C33.9408 99.2562 32.493 97.9357 32.8036 96.389L47.5329 23.0496Z" fill="#468B97"/>
</svg>
