<svg width="112" height="128" viewBox="0 0 112 128" fill="none" xmlns="http://www.w3.org/2000/svg">
<path d="M112 63.5904C112 56.1978 102.709 49.1919 88.4631 44.8474C91.7505 30.3807 90.2894 18.871 83.8516 15.1861C82.3677 14.3217 80.6327 13.9123 78.7379 13.9123V18.9847C79.788 18.9847 80.6327 19.1894 81.3404 19.5761C84.4452 21.3503 85.7921 28.106 84.742 36.7951C84.4908 38.9333 84.0799 41.1852 83.5777 43.4826C79.1031 42.3907 74.2177 41.5491 69.0811 41.0032C65.9992 36.7951 62.8031 32.9737 59.5842 29.63C67.0265 22.7379 74.0122 18.962 78.7607 18.962V13.8895C72.4827 13.8895 64.2642 18.3478 55.9543 26.0816C47.6445 18.3933 39.426 13.9805 33.148 13.9805V19.053C37.8736 19.053 44.8822 22.8061 52.3245 29.6528C49.1284 32.9965 45.9323 36.7951 42.896 41.0032C37.7367 41.5491 32.8512 42.3907 28.3767 43.5053C27.8516 41.2307 27.4635 39.0243 27.1896 36.9089C26.1166 28.2197 27.4407 21.4641 30.5226 19.6671C31.2075 19.2577 32.0978 19.0757 33.148 19.0757V14.0033C31.2303 14.0033 29.4953 14.4127 27.9886 15.2771C21.5736 18.962 20.1353 30.4489 23.4456 44.8701C9.24582 49.2374 0 56.2206 0 63.5904C0 70.983 9.29148 77.9888 23.5369 82.3334C20.2495 96.8001 21.7106 108.31 28.1484 111.995C29.6323 112.859 31.3673 113.268 33.285 113.268C39.563 113.268 47.7815 108.81 56.0913 101.076C64.4011 108.765 72.6196 113.177 78.8977 113.177C80.8153 113.177 82.5504 112.768 84.0571 111.904C90.4721 108.219 91.9103 96.7319 88.6001 82.3107C102.754 77.9661 112 70.9602 112 63.5904ZM82.2764 48.4185C81.4317 51.3528 80.3816 54.3781 79.1945 57.4034C78.2585 55.5836 77.2768 53.7639 76.2038 51.9442C75.1537 50.1245 74.0351 48.3503 72.9164 46.6216C76.1582 47.0992 79.2858 47.6907 82.2764 48.4185ZM71.8206 72.6434C70.0399 75.7142 68.2136 78.6257 66.3188 81.3326C62.9172 81.6283 59.47 81.7875 56 81.7875C52.5528 81.7875 49.1056 81.6283 45.7269 81.3553C43.832 78.6485 41.9829 75.7597 40.2022 72.7117C38.4672 69.7319 36.892 66.7066 35.4537 63.6586C36.8691 60.6106 38.4672 57.5626 40.1794 54.5828C41.9601 51.512 43.7864 48.6005 45.6812 45.8937C49.0828 45.598 52.53 45.4388 56 45.4388C59.4472 45.4388 62.8944 45.598 66.2731 45.8709C68.168 48.5778 70.0171 51.4666 71.7978 54.5146C73.5328 57.4944 75.108 60.5196 76.5463 63.5676C75.108 66.6156 73.5328 69.6637 71.8206 72.6434ZM79.1945 69.6864C80.4272 72.7344 81.4774 75.7824 82.3449 78.7395C79.3543 79.4674 76.2038 80.0815 72.9393 80.5592C74.0579 78.8077 75.1765 77.0107 76.2267 75.1683C77.2768 73.3486 78.2585 71.5061 79.1945 69.6864ZM56.0457 93.9568C53.9226 91.7731 51.7994 89.3393 49.6991 86.678C51.7538 86.7689 53.8541 86.8372 55.9772 86.8372C58.1231 86.8372 60.2462 86.7917 62.3237 86.678C60.2691 89.3393 58.146 91.7731 56.0457 93.9568ZM39.0607 80.5592C35.819 80.0815 32.6914 79.4901 29.7008 78.7622C30.5455 75.8279 31.5956 72.8027 32.7827 69.7774C33.7187 71.5971 34.7004 73.4168 35.7733 75.2365C36.8463 77.0562 37.9421 78.8305 39.0607 80.5592ZM55.9315 33.224C58.0546 35.4076 60.1777 37.8415 62.278 40.5028C60.2234 40.4118 58.1231 40.3436 56 40.3436C53.8541 40.3436 51.7309 40.3891 49.6535 40.5028C51.7081 37.8415 53.8312 35.4076 55.9315 33.224ZM39.0379 46.6216C37.9193 48.373 36.8007 50.17 35.7505 52.0125C34.7004 53.8322 33.7187 55.6519 32.7827 57.4716C31.5499 54.4236 30.4998 51.3756 29.6323 48.4185C32.6229 47.7134 35.7733 47.0992 39.0379 46.6216ZM18.3775 75.1001C10.296 71.6653 5.06808 67.1616 5.06808 63.5904C5.06808 60.0192 10.296 55.4927 18.3775 52.0807C20.3408 51.2391 22.4868 50.4885 24.7012 49.7833C26.0024 54.2416 27.7146 58.8819 29.8378 63.6359C27.7375 68.3671 26.0481 72.9846 24.7697 77.4202C22.5096 76.715 20.3636 75.9417 18.3775 75.1001ZM30.6596 107.605C27.5548 105.83 26.2079 99.0747 27.2581 90.3856C27.5092 88.2475 27.9201 85.9956 28.4223 83.6982C32.8969 84.79 37.7823 85.6316 42.9189 86.1775C46.0008 90.3856 49.1969 94.207 52.4158 97.5507C44.9735 104.443 37.9878 108.219 33.2393 108.219C32.212 108.196 31.3445 107.991 30.6596 107.605ZM84.8104 90.2719C85.8834 98.961 84.5593 105.717 81.4774 107.514C80.7925 107.923 79.9022 108.105 78.852 108.105C74.1264 108.105 67.1178 104.352 59.6755 97.5052C62.8716 94.1615 66.0677 90.3629 69.104 86.1548C74.2634 85.6089 79.1488 84.7673 83.6233 83.6527C84.1484 85.9501 84.5593 88.1565 84.8104 90.2719ZM93.5997 75.1001C91.6364 75.9417 89.4904 76.6923 87.276 77.3974C85.9747 72.9391 84.2625 68.2989 82.1394 63.5449C84.2397 58.8136 85.9291 54.1961 87.2075 49.7606C89.4676 50.4657 91.6135 51.2391 93.6225 52.0807C101.704 55.5154 106.932 60.0192 106.932 63.5904C106.909 67.1616 101.681 71.6881 93.5997 75.1001Z" fill="#468B97"/>
<path d="M55.9772 73.9855C61.7391 73.9855 66.4101 69.3315 66.4101 63.5904C66.4101 57.8494 61.7391 53.1953 55.9772 53.1953C50.2152 53.1953 45.5442 57.8494 45.5442 63.5904C45.5442 69.3315 50.2152 73.9855 55.9772 73.9855Z" fill="#468B97"/>
</svg>
