<svg width="112" height="68" viewBox="0 0 112 68" fill="none" xmlns="http://www.w3.org/2000/svg">
<path d="M59.8275 25.082C59.8269 24.3093 60.0301 23.5501 60.4165 22.8809C60.8028 22.2117 61.3588 21.6561 62.0282 21.2702C62.6977 20.8843 63.457 20.6817 64.2298 20.6827C65.0025 20.6837 65.7613 20.8884 66.4297 21.2761C70.4138 19.8135 74.8509 19.0482 79.4645 19.0482C91.8189 19.0482 102.415 24.5662 105.997 32.5072C105.967 34.3873 103.296 35.2628 102.231 34.109C99.2933 27.7307 90.0152 23.1392 79.4645 23.1392C75.6298 23.1392 71.9494 23.7246 68.6169 24.8428C68.6495 25.4299 68.5641 26.0177 68.3657 26.5712C68.1672 27.1248 67.8598 27.6329 67.4615 28.0656C67.0632 28.4983 66.5823 28.8467 66.047 29.0902C65.5117 29.3337 64.9331 29.4675 64.3452 29.4835C63.7574 29.4995 63.1723 29.3974 62.6246 29.1834C62.0769 28.9693 61.5777 28.6476 61.1565 28.2372C60.7353 27.8269 60.4006 27.3362 60.1724 26.7943C59.9441 26.2523 59.8268 25.6701 59.8275 25.082ZM109.226 41.446C109.227 40.7443 109.059 40.0527 108.738 39.429C108.417 38.8052 107.951 38.2674 107.379 37.8604C106.808 37.4535 106.147 37.1892 105.452 37.0896C104.758 36.99 104.05 37.0581 103.387 37.2881C102.724 37.5181 102.126 37.9033 101.642 38.4117C101.158 38.92 100.803 39.5367 100.607 40.2102C100.41 40.8838 100.377 41.5946 100.511 42.2833C100.645 42.9721 100.942 43.6187 101.377 44.1693C99.9721 46.3294 97.7883 48.2858 94.9903 49.857C90.6685 52.28 85.1556 53.6154 79.4628 53.6154C74.5336 53.6154 69.8013 52.6398 65.7731 50.7903C63.0514 49.5397 60.7879 47.9617 59.0961 46.1444C57.9746 45.4911 55.3818 47.5748 56.3219 49.163C61.4021 54.4469 70.0184 57.7081 79.4628 57.7081C85.8445 57.7081 92.0701 56.1878 96.9925 53.4254C100.6 51.4011 103.4 48.7795 105.161 45.8305C106.266 45.7459 107.299 45.2474 108.052 44.4346C108.806 43.6217 109.225 42.5545 109.226 41.446Z" fill="#1D5B79"/>
<path d="M24.4933 49.6992C20.4821 44.4986 18.21 37.1599 18.21 29.2358C18.21 22.0244 20.1122 15.2186 23.5651 10.0705C27.1844 4.66957 32.0814 1.69678 37.3517 1.69678C42.1553 1.69678 46.735 4.2284 50.249 8.82334C53.5663 13.1638 55.7246 19.0839 56.3236 25.4961C54.8998 24.7093 53.4319 24.0051 51.9272 23.387C50.2253 13.1943 44.2254 5.78776 37.3517 5.78776C33.488 5.78776 29.7975 8.11747 26.9604 12.3493C23.9554 16.8305 22.2993 22.8287 22.2993 29.2375C22.2993 36.2827 24.3813 42.9714 27.9157 47.434C28.8935 47.3367 29.8756 47.5695 30.7056 48.0954C31.5355 48.6213 32.1655 49.41 32.495 50.3356C32.8245 51.2613 32.8345 52.2706 32.5235 53.2027C32.2125 54.1347 31.5983 54.9357 30.779 55.478C29.9596 56.0203 28.9823 56.2726 28.0029 56.1947C27.0234 56.1168 26.0982 55.7132 25.3749 55.0482C24.6516 54.3832 24.1718 53.4952 24.012 52.5257C23.8522 51.5563 24.0216 50.5612 24.4933 49.6992ZM55.7874 28.0124C48.6065 23.8655 40.5942 22.2196 33.9631 23.3768C33.2629 22.6889 32.3526 22.255 31.3773 22.1443C30.4019 22.0335 29.4176 22.2523 28.5809 22.7656C27.7442 23.279 27.1033 24.0575 26.7603 24.9772C26.4172 25.8969 26.3917 26.905 26.6878 27.8409C26.9839 28.7768 27.5845 29.5867 28.3941 30.1418C29.2037 30.6968 30.1758 30.9651 31.1555 30.9038C32.1352 30.8426 33.0662 30.4554 33.8004 29.8038C34.5346 29.1522 35.0297 28.2738 35.2069 27.3083C40.7877 26.4836 47.563 27.987 53.741 31.5554C61.2867 35.9111 66.6231 42.6728 67.6667 48.9425C68.9681 49.4855 70.3883 49.9504 71.9256 50.3118C71.5252 42.1672 65.2759 33.488 55.7874 28.0124ZM56.8716 61.9145C52.9113 62.4185 48.4182 61.789 43.9997 60.1363C42.7305 61.117 41.3866 62.0367 39.9749 62.8868C44.6683 65.0417 49.5856 66.1735 54.1466 66.1735C55.2512 66.1735 56.3371 66.1073 57.3909 65.9733C62.8529 65.2793 67.1814 62.8155 69.6706 59.0079C68.2618 58.6666 66.8738 58.2445 65.5134 57.7438C63.5978 59.9785 60.5961 61.4411 56.8716 61.9145ZM52.4922 45.8424C53.4747 45.8319 54.4254 45.4926 55.1927 44.8787C55.9599 44.2648 56.4995 43.4117 56.7253 42.4554C56.9511 41.4991 56.8502 40.4947 56.4387 39.6025C56.0271 38.7102 55.3286 37.9815 54.4546 37.5325C53.5806 37.0835 52.5814 36.9401 51.6164 37.1252C50.6514 37.3103 49.7762 37.8132 49.1303 38.5538C48.4845 39.2943 48.1052 40.2298 48.053 41.211C48.0008 42.1922 48.2787 43.1626 48.8424 43.9675C48.0059 45.9799 46.7791 47.994 45.2146 49.913C42.795 52.8791 39.6135 55.5464 36.0146 57.625C30.9903 60.5282 25.5793 62.0859 20.6025 62.0842C20.0833 62.0842 19.5675 62.0672 19.0584 62.0333C13.9748 61.6922 10.1129 59.6612 8.18026 56.3168C4.75612 50.3848 8.17008 41.463 16.1315 34.9015C15.9357 33.4415 15.8168 31.9724 15.7751 30.5L15.5495 30.1861C10.364 33.9139 6.37656 38.726 4.31835 43.7316C2.13796 49.0358 2.25164 54.2314 4.63734 58.3614C7.27248 62.9241 12.2967 65.6797 18.7836 66.1158C19.3791 66.1548 19.9815 66.1752 20.589 66.1752C26.2817 66.1752 32.4157 64.4275 38.0592 61.1679C44.787 57.2856 49.9521 51.7405 52.4922 45.8424Z" fill="#468B97"/>
</svg>
