<svg width="112" height="107" viewBox="0 0 112 107" fill="none" xmlns="http://www.w3.org/2000/svg">
<path d="M77.6042 74.2582C81.7372 73.8303 84.8728 70.2673 84.7302 65.9912C84.588 61.7155 81.0246 58.2947 76.7489 58.2947H76.4641C72.0453 58.4373 68.6249 62.1429 68.7675 66.5613C68.9102 68.6993 69.7651 70.5521 71.0478 71.8349C66.2021 81.3846 58.7908 88.3684 47.6739 94.2121C40.1201 98.203 32.2814 99.6284 24.4427 98.6309C18.0289 97.7756 13.0406 94.9253 9.90456 90.2213C5.34406 83.2374 4.91662 75.6831 8.76487 68.1293C11.473 62.713 15.7482 58.7221 18.4564 56.7267C17.8863 54.8739 17.031 51.7383 16.6036 49.4581C-4.06263 64.4236 -1.92457 84.6628 4.34656 94.2121C9.04968 101.339 18.599 105.757 29.1458 105.757C31.9961 105.757 34.8464 105.472 37.6972 104.76C55.9405 101.196 69.7655 90.3639 77.6042 74.2582ZM102.689 56.5845C91.8566 43.8992 75.894 36.9154 57.6507 36.9154H55.3704C54.0877 34.3499 51.3796 32.6393 48.3866 32.6393H48.1014C43.6835 32.7819 40.2631 36.4875 40.4053 40.9063C40.5479 45.1819 44.1109 48.6028 48.3866 48.6028H48.6714C51.807 48.4601 54.5151 46.4647 55.6552 43.7566H58.2207C69.0528 43.7566 79.3144 46.8921 88.5789 53.0211C95.7049 57.7246 100.836 63.8536 103.686 71.2648C106.109 77.2511 105.966 83.0948 103.401 88.0836C99.4105 95.6375 92.7119 99.771 83.8753 99.771C78.1742 99.771 72.7584 98.0604 69.9077 96.7776C68.3401 98.203 65.4894 100.483 63.4939 101.909C69.6229 104.759 75.894 106.327 81.8799 106.327C95.5622 106.327 105.682 98.7731 109.53 91.2192C113.663 82.9522 113.378 68.6993 102.689 56.5845ZM30.2859 76.6806C30.4286 80.9568 33.9916 84.3771 38.2672 84.3771H38.5525C42.9708 84.2349 46.3912 80.5289 46.2486 76.1106C46.1064 71.8344 42.5429 68.4141 38.2672 68.4141H37.9824C37.6972 68.4141 37.2693 68.4141 36.9849 68.5563C31.1412 58.8643 28.7184 48.3175 29.5737 36.9149C30.1433 28.3631 32.9941 20.9514 37.9824 14.8225C42.1155 9.54888 50.0968 6.98338 55.5131 6.84119C70.6204 6.55594 77.0337 25.3698 77.4615 32.9241C79.3144 33.3515 82.4499 34.3494 84.588 35.0621C82.8774 11.9726 68.6249 0 54.943 0C42.1155 0 30.2859 9.2645 25.5824 22.9473C19.0264 41.1911 23.3021 58.7221 31.2834 72.5476C30.5712 73.5451 30.1433 75.1126 30.2859 76.6806Z" fill="#468B97"/>
</svg>
