<svg width="112" height="84" viewBox="0 0 112 84" fill="none" xmlns="http://www.w3.org/2000/svg">
<g clip-path="url(#clip0_4_118)">
<path d="M96.3813 48.2562C92.4656 48.2783 89.075 49.2187 86.2313 50.6189C85.1812 48.5408 84.1312 46.725 83.9565 45.3689C83.7596 43.7939 83.519 42.8312 83.7596 40.9502C84 39.0687 85.0937 36.4 85.0937 36.1812C85.0717 35.9844 84.8529 35.0219 82.6 35C80.3471 34.9781 78.4 35.4375 78.1812 36.0281C77.9625 36.6187 77.525 37.975 77.2406 39.375C76.8469 41.4312 72.7344 48.7156 70.3937 52.5437C69.6281 51.0562 68.9719 49.7437 68.8404 48.6935C68.6437 47.1187 68.4029 46.156 68.6437 44.275C68.8844 42.3935 69.9781 39.725 69.9781 39.5062C69.9562 39.3094 69.7375 38.3469 67.4846 38.325C65.2313 38.3031 63.2846 38.7625 63.0658 39.3531C62.8471 39.9437 62.6065 41.3437 62.1252 42.7C61.6656 44.0562 56.1969 56.2187 54.775 59.3906C54.0531 61.0094 53.419 62.3 52.9594 63.175C52.5 64.05 52.9375 63.2406 52.8937 63.3281C52.5 64.0719 52.2812 64.4875 52.2812 64.4875V64.5096C51.975 65.0565 51.6469 65.5812 51.4935 65.5812C51.3842 65.5812 51.1654 64.1156 51.5373 62.1033C52.3467 57.8812 54.3154 51.2971 54.2937 51.0564C54.2937 50.9471 54.6654 49.7875 53.0248 49.1971C51.4279 48.6064 50.8594 49.5908 50.7279 49.5908C50.5967 49.5908 50.4873 49.9408 50.4873 49.9408C50.4873 49.9408 52.2592 42.5254 47.0967 42.5254C43.8592 42.5254 39.3967 46.0473 37.1873 49.2629C35.7873 50.0285 32.8123 51.6471 29.6623 53.3754C28.4592 54.0317 27.2123 54.7317 26.031 55.366L25.7906 55.1031C19.5344 48.4312 7.9625 43.7062 8.44375 34.7375C8.61875 31.4781 9.75625 22.8812 30.669 12.4687C47.7971 3.93748 61.5127 6.2781 63.8969 11.4844C67.2875 18.9219 56.5687 32.7469 38.7627 34.7375C31.9815 35.5031 28.4156 32.8781 27.519 31.8937C26.5783 30.8656 26.4471 30.8219 26.0971 31.0187C25.5283 31.325 25.8783 32.2437 26.0971 32.7906C26.6221 34.1687 28.8096 36.6187 32.5283 37.8437C35.7875 38.9156 43.7502 39.5062 53.3752 35.7875C64.1596 31.6094 72.5815 20.0156 70.1096 10.325C67.594 0.459355 51.2315 -2.77815 35.7658 2.71248C26.5562 5.99373 16.5812 11.1125 9.40625 17.8281C0.874999 25.7906 -0.481251 32.7469 0.0874988 35.6344C2.07834 45.9375 16.275 52.6531 21.9625 57.6187C21.6781 57.7716 21.4156 57.9248 21.175 58.0562C18.3312 59.456 7.50312 65.1219 4.79062 71.1154C1.72812 77.8966 5.27187 82.775 7.63437 83.4312C14.9406 85.4656 22.4219 81.8125 26.4687 75.7969C30.4935 69.7812 30.0125 61.9719 28.1531 58.4062L28.0873 58.275L30.3185 56.9625C31.7625 56.1094 33.1844 55.3219 34.431 54.6435C33.7312 56.5466 33.2279 58.7998 32.9656 62.081C32.6594 65.9312 34.2344 70.9185 36.3125 72.8873C37.2312 73.7402 38.325 73.7623 39.0031 73.7623C41.4094 73.7623 42.5031 71.7714 43.7062 69.3873C45.1937 66.4779 46.5062 63.1091 46.5062 63.1091C46.5062 63.1091 44.8656 72.231 49.35 72.231C50.9906 72.231 52.6312 70.1091 53.375 69.0154V69.0373C53.375 69.0373 53.4188 68.9716 53.5062 68.8185C53.598 68.6828 53.6856 68.5443 53.7687 68.4031V68.3594C54.425 67.2219 55.8906 64.6187 58.0781 60.3094C60.8998 54.7531 63.6125 47.7969 63.6125 47.7969C63.6125 47.7969 63.875 49.5031 64.6844 52.3031C65.1654 53.9658 66.2154 55.7812 67.0248 57.5531C66.3685 58.4719 65.9748 58.9971 65.9748 58.9971L65.9967 59.019C65.4719 59.719 64.881 60.4629 64.2687 61.2065C62.0375 63.8752 59.3687 66.916 59.0187 67.791C58.6031 68.819 58.6906 69.5846 59.5 70.1973C60.0906 70.6348 61.1406 70.7221 62.2562 70.6348C64.2687 70.5033 65.6687 70.0004 66.3687 69.694C67.4625 69.3002 68.7094 68.7096 69.9125 67.8346C72.1 66.216 73.4344 63.9192 73.3031 60.8567C73.2375 59.1723 72.6906 57.5098 72.0125 55.9348C72.2094 55.6504 72.4065 55.3658 72.6031 55.0598C76.0594 50.0065 78.7281 44.4504 78.7281 44.4504C78.7281 44.4504 78.9906 46.1567 79.8 48.9567C80.2154 50.3785 81.0469 51.9319 81.7906 53.4631C78.5531 56.11 76.5187 59.1725 75.8188 61.185C74.5281 64.9038 75.5344 66.5881 77.4375 66.9819C78.2904 67.1569 79.5156 66.7631 80.4342 66.3694C81.5717 65.9975 82.9498 65.3629 84.2187 64.4225C86.4062 62.8038 88.5063 60.5506 88.3969 57.51C88.3312 56.11 87.9594 54.7319 87.4562 53.4194C90.2125 52.2819 93.7779 51.6256 98.3062 52.1725C108.041 53.31 109.966 59.3913 109.594 61.9288C109.222 64.4665 107.188 65.8663 106.509 66.3038C105.831 66.7194 105.612 66.8727 105.678 67.1788C105.766 67.6384 106.072 67.6163 106.663 67.529C107.472 67.3975 111.781 65.4509 111.956 60.7698C112.219 54.7533 106.509 48.1908 96.3813 48.2562ZM21.3062 73.5656C18.0906 77.0875 13.5625 78.4219 11.6375 77.2844C9.55937 76.0812 10.3685 70.8969 14.3281 67.1562C16.7344 64.8812 19.8625 62.7812 21.9187 61.4906C22.3781 61.2062 23.0781 60.7908 23.9094 60.2875C24.0406 60.2002 24.1281 60.1562 24.1281 60.1562C24.2812 60.0687 24.4562 59.9594 24.6312 59.85C26.0969 65.1875 24.6969 69.8687 21.3062 73.5656ZM44.8219 57.575C43.7062 60.3094 41.3437 67.3312 39.9219 66.9375C38.6967 66.6094 37.9531 61.2937 39.681 56.0437C40.556 53.3966 42.4154 50.2469 43.5092 49.0216C45.2812 47.0529 47.206 46.3966 47.6875 47.206C48.2562 48.2562 45.5219 55.8687 44.8219 57.575ZM64.225 66.85C63.7437 67.0908 63.3062 67.2656 63.1094 67.1346C62.9562 67.0471 63.306 66.719 63.306 66.719C63.306 66.719 65.7341 64.1158 66.6967 62.9127C67.2435 62.2129 67.8998 61.4035 68.5998 60.4846V60.7471C68.6 63.8969 65.5812 65.9969 64.225 66.85ZM79.1873 63.4375C78.8373 63.175 78.8812 62.3656 80.0623 59.8281C80.5219 58.8219 81.5717 57.1375 83.3873 55.5406C83.606 56.1969 83.7375 56.831 83.7154 57.4219C83.6938 61.3594 80.8937 62.825 79.1873 63.4375Z" fill="#468B97"/>
</g>
<defs>
<clipPath id="clip0_4_118">
<rect width="112" height="84" fill="white"/>
</clipPath>
</defs>
</svg>
