<svg width="90" height="112" viewBox="0 0 90 112" fill="none" xmlns="http://www.w3.org/2000/svg">
<path d="M3.47558 103.208L0.00358657 10.7522C-0.0488101 9.28376 0.474595 7.85295 1.46217 6.76494C2.44975 5.67694 3.82333 5.01784 5.28997 4.92821L83.9138 0.0114239C84.682 -0.0375958 85.4521 0.0714909 86.1764 0.331939C86.9008 0.592387 87.564 0.998659 88.1251 1.52563C88.6862 2.05261 89.1332 2.68908 89.4385 3.3957C89.7439 4.10232 89.901 4.86405 89.9002 5.63381V106.372C89.8994 107.133 89.7447 107.885 89.4453 108.584C89.1458 109.283 88.708 109.915 88.158 110.44C87.6081 110.965 86.9574 111.374 86.2453 111.641C85.5332 111.908 84.7744 112.028 84.0146 111.994L8.85157 108.618C7.43953 108.554 6.103 107.962 5.10716 106.959C4.11132 105.956 3.52894 104.62 3.47558 103.208Z" fill="#468B97"/>
<path fill-rule="evenodd" clip-rule="evenodd" d="M77.7312 0.397827L66.9121 1.06983L66.3857 13.765C66.3792 13.9238 66.4179 14.0812 66.4974 14.2189C66.5769 14.3566 66.6937 14.469 66.8345 14.5428C66.9752 14.6167 67.1341 14.6492 67.2925 14.6364C67.451 14.6236 67.6026 14.5661 67.7296 14.4706L72.6576 10.7298L76.824 14.0114C76.9498 14.111 77.1015 14.1724 77.2611 14.1885C77.4207 14.2046 77.5816 14.1747 77.7247 14.1022C77.8678 14.0298 77.9872 13.9178 78.0688 13.7797C78.1503 13.6415 78.1906 13.4829 78.1848 13.3226L77.7312 0.397827ZM69.3088 42.9017C67.3321 44.4417 52.5705 45.4889 52.5705 43.2993C52.8841 34.9385 49.1433 34.5745 47.0601 34.5745C45.0889 34.5745 41.7625 35.1681 41.7625 39.6481C41.7625 44.2121 46.6233 46.7881 52.3297 49.8121C60.4329 54.1073 70.2496 59.3097 70.2496 72.3913C70.2496 84.9352 60.0577 91.8568 47.0657 91.8568C33.6537 91.8568 21.933 86.4304 23.2546 67.6201C23.7754 65.4137 40.8273 65.9401 40.8273 67.6201C40.6145 75.3816 42.3841 77.6664 46.8529 77.6664C50.2857 77.6664 51.8425 75.7737 51.8425 72.5929C51.8425 67.7713 46.7801 64.9265 40.9505 61.6561C33.0601 57.2265 23.7754 52.0129 23.7754 40.0457C23.7754 28.1066 31.9849 20.1434 46.6457 20.1434C61.3065 20.1434 69.3088 27.9834 69.3088 42.9017Z" fill="white"/>
</svg>
