<svg width="112" height="113" viewBox="0 0 112 113" fill="none" xmlns="http://www.w3.org/2000/svg">
<g clip-path="url(#clip0_4_75)">
<rect width="112" height="113" rx="4" fill="#468B97"/>
<path d="M24.556 56.6977V61.3025H39.116V103.113H49.448V61.3025H64.008V56.7825C64.008 54.24 64.008 52.1778 63.896 52.1213C63.896 52.0365 55.02 52.0083 44.24 52.0083L24.64 52.093V56.726L24.556 56.6977ZM89.992 51.98C92.848 52.658 95.032 53.9575 96.992 56.0198C98.028 57.1498 99.568 59.1273 99.68 59.6358C99.68 59.8053 94.836 63.1105 91.896 64.9467C91.784 65.0315 91.336 64.5512 90.888 63.8167C89.432 61.7262 87.948 60.8223 85.624 60.6528C82.264 60.4268 80.024 62.2065 80.024 65.1728C80.024 66.0768 80.192 66.5853 80.528 67.3198C81.284 68.8735 82.684 69.8057 87.024 71.7267C95.032 75.2015 98.504 77.4897 100.604 80.7668C102.984 84.4393 103.516 90.2023 101.92 94.5245C100.128 99.2423 95.76 102.435 89.516 103.48C87.556 103.819 83.076 103.762 80.976 103.395C76.496 102.548 72.212 100.288 69.58 97.3778C68.544 96.2478 66.556 93.225 66.668 93.0273L67.732 92.3493L71.932 89.8915L75.096 88.027L75.824 89.0158C76.748 90.4848 78.82 92.4623 80.024 93.1403C83.664 95.033 88.536 94.7788 90.944 92.5753C91.98 91.6148 92.428 90.5978 92.428 89.1853C92.428 87.8858 92.232 87.2925 91.588 86.3038C90.692 85.0608 88.9 84.0438 83.86 81.7838C78.064 79.2978 75.6 77.7158 73.304 75.2863C71.988 73.8173 70.784 71.529 70.224 69.6363C69.804 67.9978 69.664 63.9863 70.056 62.376C71.26 56.726 75.488 52.771 81.536 51.641C83.496 51.2455 88.116 51.415 90.048 51.9235L89.992 51.98Z" fill="white"/>
</g>
<defs>
<clipPath id="clip0_4_75">
<rect width="112" height="113" fill="white"/>
</clipPath>
</defs>
</svg>
