<svg width="112" height="113" viewBox="0 0 112 113" fill="none" xmlns="http://www.w3.org/2000/svg">
<path d="M110.837 17.1929L58.9787 110.08C57.908 111.997 55.1572 112.009 54.0705 110.1L1.18417 17.2016C2.08616e-06 15.1221 1.77538 12.603 4.12819 13.0246L56.042 22.3189C56.3733 22.3782 56.7124 22.3776 57.0434 22.3172L107.871 13.0375C110.216 12.6095 112 15.1092 110.837 17.1929Z" fill="#468B97"/>
<path d="M80.771 0.832558L42.3948 8.36498C42.0882 8.42515 41.8102 8.58569 41.6046 8.82136C41.399 9.05702 41.2774 9.35445 41.259 9.66689L38.8984 49.6037C38.8854 49.8227 38.9236 50.0417 39.0099 50.2434C39.0962 50.4451 39.2282 50.6238 39.3955 50.7655C39.5628 50.9071 39.7608 51.0077 39.9737 51.0593C40.1866 51.1109 40.4086 51.1121 40.622 51.0628L51.3067 48.5929C52.3063 48.3618 53.2097 49.2438 53.004 50.2507L49.8297 65.8214C49.6163 66.8693 50.5982 67.7652 51.6198 67.4542L58.2193 65.446C59.2422 65.135 60.2254 66.0335 60.0089 67.0823L54.9644 91.5399C54.6487 93.0699 56.6803 93.904 57.5272 92.5926L58.0934 91.7166L89.3646 29.2042C89.8886 28.1576 88.9851 26.9641 87.8381 27.1861L76.8395 29.3122C75.8063 29.5117 74.927 28.5476 75.2185 27.5351L82.3968 2.60919C82.6887 1.59409 81.8056 0.629539 80.771 0.832558Z" fill="#ADD3DA"/>
</svg>
