<?xml version="1.0" standalone="no"?>
<!DOCTYPE svg PUBLIC "-//W3C//DTD SVG 20010904//EN"
 "http://www.w3.org/TR/2001/REC-SVG-20010904/DTD/svg10.dtd">
<svg version="1.0" xmlns="http://www.w3.org/2000/svg"
 width="600.000000pt" height="600.000000pt" viewBox="0 0 600.000000 600.000000"
 preserveAspectRatio="xMidYMid meet">
<metadata>
Created by potrace 1.14, written by Peter Selinger 2001-2017
</metadata>
<g transform="translate(0.000000,600.000000) scale(0.100000,-0.100000)"
fill="#000000" stroke="none">
<path d="M3125 5833 c-103 -25 -172 -91 -261 -253 -38 -69 -73 -132 -79 -141
-5 -10 -22 -40 -37 -68 -15 -29 -46 -83 -68 -121 -22 -37 -40 -73 -40 -79 0
-6 -4 -11 -10 -11 -5 0 -10 -5 -10 -11 0 -6 -10 -25 -22 -42 -13 -18 -22 -34
-22 -37 1 -3 -4 -14 -11 -25 -7 -11 -35 -60 -62 -110 -27 -49 -62 -111 -76
-137 -15 -27 -38 -68 -52 -93 -14 -25 -37 -66 -52 -92 -15 -27 -36 -65 -47
-85 -12 -20 -91 -162 -176 -314 -85 -153 -169 -303 -186 -333 -147 -265 -189
-338 -202 -353 -8 -10 -12 -18 -9 -18 4 0 -8 -24 -25 -52 -17 -29 -41 -72 -54
-95 -13 -24 -36 -64 -51 -90 -14 -27 -44 -79 -65 -118 -21 -38 -42 -77 -48
-85 -5 -8 -24 -42 -41 -75 -17 -33 -34 -62 -38 -65 -3 -3 -14 -21 -23 -40 -10
-19 -31 -60 -49 -90 -59 -105 -222 -395 -249 -445 -15 -27 -38 -68 -50 -90
-69 -121 -199 -354 -225 -403 -16 -31 -32 -59 -35 -62 -3 -3 -10 -14 -16 -25
-6 -11 -23 -42 -39 -70 -67 -120 -125 -225 -160 -290 -21 -38 -49 -87 -62
-107 -13 -21 -23 -42 -23 -46 0 -5 -8 -20 -18 -33 -10 -13 -37 -58 -59 -99
-41 -75 -51 -95 -121 -218 -21 -37 -41 -74 -45 -82 -4 -8 -23 -42 -42 -75 -76
-130 -112 -218 -110 -265 8 -138 72 -243 183 -297 l57 -28 240 0 c132 0 249 4
260 9 11 5 25 10 32 12 42 8 153 113 153 143 0 6 4 11 9 11 5 0 11 8 14 18 6
17 49 96 112 204 19 32 35 60 35 62 0 2 33 61 73 132 40 71 76 136 80 144 4 8
15 29 25 45 10 17 32 55 49 85 16 30 40 73 53 95 12 22 47 85 78 140 30 55 62
111 70 125 9 14 17 27 17 30 1 5 9 20 107 188 26 46 48 88 48 92 0 25 96 110
152 136 l63 28 535 0 c294 0 549 -3 566 -6 107 -20 205 -111 239 -223 9 -30
12 -193 13 -616 1 -316 4 -586 6 -602 5 -35 44 -114 70 -145 65 -76 164 -112
304 -112 128 0 190 20 268 87 21 18 82 96 76 97 -2 1 2 15 9 31 10 23 14 157
15 568 3 642 4 659 22 711 16 49 79 134 104 142 10 3 18 9 18 14 0 5 26 19 58
31 54 21 72 22 352 24 300 1 338 -3 408 -39 67 -35 144 -139 159 -216 3 -14 6
-290 7 -615 l1 -590 27 -55 c43 -87 107 -145 192 -173 36 -12 80 -16 170 -14
137 3 188 20 259 86 38 36 83 115 91 161 3 14 5 25 6 25 3 0 5 2411 2 2426 -3
14 -78 16 -785 16 -759 0 -839 2 -876 23 -10 5 -21 7 -23 4 -3 -2 -11 2 -18
11 -7 8 -18 15 -25 15 -24 0 -104 100 -125 158 l-22 57 -1 1345 -2 1345 -460
1 c-253 1 -469 -1 -480 -3z m8 -2271 c82 -37 145 -109 172 -197 16 -55 14
-217 -4 -270 -23 -68 -90 -149 -151 -180 -95 -49 -244 -49 -340 0 -104 54
-166 152 -175 280 -5 73 72 241 142 308 93 91 232 114 356 59z"/>
</g>
</svg>
