<svg width="75" height="71" viewBox="0 0 75 71" xmlns="http://www.w3.org/2000/svg">
<path fill-rule="evenodd" clip-rule="evenodd" d="M41.4785 0H39.9712C38.5229 0 37.1878 0.782827 36.4806 2.04665L1.22575 65.0466C-0.266321 67.7129 1.66097 71 4.71637 71H8.77441C10.2227 71 11.5578 70.2172 12.265 68.9533L21.907 51.7232C22.6142 50.4594 23.9494 49.6766 25.3976 49.6766H37.4785C39.6876 49.6766 41.4785 51.4674 41.4785 53.6766V67C41.4785 69.2091 43.2693 71 45.4785 71H46.8514C49.0605 71 50.8514 69.2091 50.8514 67V53.6766C50.8514 51.4674 52.6423 49.6766 54.8514 49.6766H60.9108C63.1199 49.6766 64.9108 51.4674 64.9108 53.6766V67C64.9108 69.2091 66.7017 71 68.9108 71H70.2837C72.4929 71 74.2837 69.2091 74.2837 67V37.0662C74.2837 37.0424 74.2645 37.0231 74.2407 37.0231H64.9108H54.8514C52.6423 37.0231 50.8514 35.2323 50.8514 33.0231L50.8514 6.48499e-05C50.8514 2.90343e-05 50.8514 0 50.8513 0H41.4785ZM41.4785 32.0882C41.4785 27.9673 36.0002 26.5388 33.9878 30.1349L33.4647 31.0698C31.9726 33.7361 33.8999 37.0231 36.9553 37.0231H37.4785C39.6876 37.0231 41.4785 35.2323 41.4785 33.0231V32.0882Z" fill="#1D5B79"/>
</svg>
